<svg preserveAspectRatio="none" width="100%" height="100%" overflow="visible" style="display: block;" viewBox="0 0 241.276 355.086" fill="none" xmlns="http://www.w3.org/2000/svg">
<path id="figma" fill-rule="evenodd" clip-rule="evenodd" d="M63.7334 10.8119C34.5219 10.8119 10.8119 34.5219 10.8119 63.7334C10.8119 92.9449 34.5219 116.655 63.7334 116.655H114.379C115.636 116.655 116.655 115.636 116.655 114.379V13.0881C116.655 11.831 115.636 10.8119 114.379 10.8119H63.7334ZM126.898 10.8119C125.641 10.8119 124.622 11.831 124.622 13.0881V114.379C124.622 115.636 125.641 116.655 126.898 116.655H177.543C206.754 116.655 230.464 92.9449 230.464 63.7334C230.464 34.5219 206.754 10.8119 177.543 10.8119H126.898ZM204.695 123.036C202.826 122.102 202.826 119.174 204.695 118.241C224.69 108.255 238.431 87.5897 238.431 63.7334C238.431 30.122 211.154 2.84524 177.543 2.84524H63.7334C30.122 2.84524 2.84524 30.122 2.84524 63.7334C2.84524 87.5897 16.5865 108.255 36.5809 118.241C38.4505 119.174 38.4505 122.102 36.5809 123.036C16.5865 133.022 2.84524 153.687 2.84524 177.543C2.84524 201.399 16.5865 222.064 36.5809 232.05C38.4505 232.984 38.4505 235.912 36.5809 236.845C16.5865 246.831 2.84524 267.496 2.84524 291.353C2.84524 324.964 30.122 352.241 63.7334 352.241C97.3448 352.241 124.622 324.964 124.622 291.353V216.243C124.622 213.908 127.955 212.946 129.385 214.792C140.525 229.171 157.959 238.431 177.543 238.431C211.154 238.431 238.431 211.154 238.431 177.543C238.431 153.687 224.69 133.022 204.695 123.036ZM129.384 140.294C127.954 142.14 124.622 141.178 124.622 138.843V126.898C124.622 125.641 125.641 124.622 126.898 124.622H138.843C141.178 124.622 142.14 127.954 140.294 129.384C136.214 132.546 132.546 136.214 129.384 140.294ZM177.543 124.622C148.331 124.622 124.622 148.331 124.622 177.543C124.622 206.754 148.331 230.464 177.543 230.464C206.754 230.464 230.464 206.754 230.464 177.543C230.464 148.331 206.754 124.622 177.543 124.622ZM114.379 124.622C115.636 124.622 116.655 125.641 116.655 126.898V228.188C116.655 229.445 115.636 230.464 114.379 230.464H63.7334C34.5219 230.464 10.8119 206.754 10.8119 177.543C10.8119 148.331 34.5219 124.622 63.7334 124.622H114.379ZM63.7334 238.431C34.5219 238.431 10.8119 262.141 10.8119 291.353C10.8119 320.564 34.5219 344.274 63.7334 344.274C92.9449 344.274 116.655 320.564 116.655 291.353V240.707C116.655 239.45 115.636 238.431 114.379 238.431H63.7334Z" fill="var(--fill-0, #2C2C2C)" stroke="var(--stroke-0, #2C2C2C)" stroke-width="5.69048"/>
</svg>
