<svg preserveAspectRatio="none" width="100%" height="100%" overflow="visible" style="display: block;" viewBox="0 0 492.661 464.971" fill="none" xmlns="http://www.w3.org/2000/svg">
<g id="ROTARY ENCODER">
<rect id="Rectangle 337" x="18.5014" y="56.415" width="455.383" height="388.074" fill="var(--fill-0, #1B1B1B)"/>
<rect id="Rectangle 338" x="43.5438" y="73.17" width="399.333" height="354.302" fill="url(#paint0_linear_0_71)"/>
<g id="Union" filter="url(#filter0_d_0_71)">
<path fill-rule="evenodd" clip-rule="evenodd" d="M118.039 5.6306C118.039 2.59675 115.58 0.137331 112.546 0.137331H9.75055C6.7167 0.137331 4.25728 2.59673 4.25728 5.63058V451.101C4.25728 454.135 6.7167 456.594 9.75055 456.594H482.911C485.945 456.594 488.404 454.135 488.404 451.101V43.6872C488.404 40.6534 485.945 38.194 482.911 38.194H123.533C120.499 38.194 118.039 35.7346 118.039 32.7007V5.6306ZM26.7717 66.2016C26.7717 63.1678 29.2311 60.7083 32.2649 60.7083H460.396C463.43 60.7083 465.89 63.1678 465.89 66.2016V428.587C465.89 431.62 463.43 434.08 460.396 434.08H32.2649C29.2311 434.08 26.7717 431.62 26.7717 428.587V66.2016Z" fill="url(#paint1_linear_0_71)"/>
</g>
<g id="Rectangle 316" filter="url(#filter1_f_0_71)">
<mask id="path-4-inside-1_0_71" fill="white">
<path d="M94.1046 74.0015C94.1046 72.5765 95.2598 71.4213 96.6848 71.4213H395.978C397.403 71.4213 398.558 72.5765 398.558 74.0015V74.0015C398.558 75.4266 397.403 76.5818 395.978 76.5818H96.6848C95.2598 76.5818 94.1046 75.4266 94.1046 74.0015V74.0015Z"/>
</mask>
<path d="M94.1046 74.0015C94.1046 72.5765 95.2598 71.4213 96.6848 71.4213H395.978C397.403 71.4213 398.558 72.5765 398.558 74.0015V74.0015C398.558 75.4266 397.403 76.5818 395.978 76.5818H96.6848C95.2598 76.5818 94.1046 75.4266 94.1046 74.0015V74.0015Z" fill="var(--fill-0, #D9D9D9)" fill-opacity="0.5"/>
<path d="M94.1046 71.4213H398.558H94.1046ZM399.931 74.6882C399.931 76.4925 398.468 77.9551 396.664 77.9551H98.0582C95.8747 77.9551 94.1046 76.185 94.1046 74.0015C94.1046 74.6681 95.2598 75.2085 96.6848 75.2085H395.978C396.644 75.2085 397.184 74.6681 397.184 74.0015L399.931 74.6882ZM94.1046 76.5818V71.4213V76.5818ZM396.664 71.4213C398.468 71.4213 399.931 72.8839 399.931 74.6882V74.6882C399.931 76.4925 398.468 77.9551 396.664 77.9551L395.978 75.2085C396.644 75.2085 397.184 74.6681 397.184 74.0015C397.184 72.5765 396.644 71.4213 395.978 71.4213H396.664Z" fill="var(--stroke-0, black)" fill-opacity="0.5" mask="url(#path-4-inside-1_0_71)"/>
</g>
<g id="Rectangle 331" filter="url(#filter2_f_0_71)">
<mask id="path-6-inside-2_0_71" fill="white">
<path d="M94.1046 421.387C94.1046 419.87 95.3343 418.64 96.8512 418.64L395.811 418.64C397.328 418.64 398.558 419.87 398.558 421.387V421.682C398.558 423.199 397.328 424.429 395.811 424.429L96.8513 424.429C95.3343 424.429 94.1046 423.199 94.1046 421.682V421.387Z"/>
</mask>
<path d="M94.1046 421.387C94.1046 419.87 95.3343 418.64 96.8512 418.64L395.811 418.64C397.328 418.64 398.558 419.87 398.558 421.387V421.682C398.558 423.199 397.328 424.429 395.811 424.429L96.8513 424.429C95.3343 424.429 94.1046 423.199 94.1046 421.682V421.387Z" fill="var(--fill-0, #D9D9D9)" fill-opacity="0.5"/>
<path d="M94.1046 421.387C94.1046 419.718 95.4573 418.366 97.1259 418.366L396.223 418.366C397.892 418.366 399.244 419.718 399.244 421.387H397.871C397.871 420.022 396.949 418.915 395.811 418.915L96.8512 418.915C95.3343 418.915 94.1046 420.022 94.1046 421.387V421.387ZM399.244 422.369C399.244 424.265 397.707 425.802 395.811 425.802L98.2246 425.802C95.9492 425.802 94.1046 423.958 94.1046 421.682V421.682C94.1046 422.441 95.3343 423.055 96.8512 423.055L395.811 423.055C396.949 423.055 397.871 422.441 397.871 421.682L399.244 422.369ZM94.1046 424.429V418.64V424.429ZM396.223 418.366C397.892 418.366 399.244 419.718 399.244 421.387V422.369C399.244 424.265 397.707 425.802 395.811 425.802V423.055C396.949 423.055 397.871 422.441 397.871 421.682V421.387C397.871 420.022 396.949 418.915 395.811 418.915L396.223 418.366Z" fill="var(--stroke-0, black)" fill-opacity="0.5" mask="url(#path-6-inside-2_0_71)"/>
</g>
<g id="Rectangle 333" filter="url(#filter3_f_0_71)">
<mask id="path-8-inside-3_0_71" fill="white">
<path d="M94.1046 428.869C94.1046 428.097 94.7299 427.472 95.5011 427.472L397.161 427.472C397.933 427.472 398.558 428.097 398.558 428.869V428.869C398.558 429.64 397.933 430.265 397.161 430.265L95.5011 430.265C94.7298 430.265 94.1046 429.64 94.1046 428.869V428.869Z"/>
</mask>
<path d="M94.1046 428.869C94.1046 428.097 94.7299 427.472 95.5011 427.472L397.161 427.472C397.933 427.472 398.558 428.097 398.558 428.869V428.869C398.558 429.64 397.933 430.265 397.161 430.265L95.5011 430.265C94.7298 430.265 94.1046 429.64 94.1046 428.869V428.869Z" fill="var(--fill-0, #D9D9D9)" fill-opacity="0.5"/>
<path d="M94.1046 428.869C94.1046 427.946 94.8528 427.197 95.7758 427.197L397.573 427.197C398.496 427.197 399.244 427.946 399.244 428.869H397.871C397.871 428.249 397.553 427.747 397.161 427.747L95.5011 427.747C94.7299 427.747 94.1046 428.249 94.1046 428.869V428.869ZM399.244 429.555C399.244 430.706 398.312 431.638 397.161 431.638L96.8744 431.638C95.3447 431.638 94.1046 430.398 94.1046 428.869C94.1046 428.881 94.7299 428.892 95.5011 428.892L397.161 428.892C397.553 428.892 397.871 428.881 397.871 428.869L399.244 429.555ZM94.1046 430.265V427.472V430.265ZM397.573 427.197C398.496 427.197 399.244 427.946 399.244 428.869V429.555C399.244 430.706 398.312 431.638 397.161 431.638V428.892C397.553 428.892 397.871 428.881 397.871 428.869V428.869C397.871 428.249 397.553 427.747 397.161 427.747L397.573 427.197Z" fill="var(--stroke-0, black)" fill-opacity="0.5" mask="url(#path-8-inside-3_0_71)"/>
</g>
<g id="Rectangle 317" filter="url(#filter4_f_0_71)">
<mask id="path-10-inside-4_0_71" fill="white">
<path d="M94.1046 85.2482C94.1046 83.7313 95.3343 82.5016 96.8512 82.5016H395.811C397.328 82.5016 398.558 83.7313 398.558 85.2482V90.0202C398.558 91.5371 397.328 92.7668 395.811 92.7668H96.8513C95.3343 92.7668 94.1046 91.5371 94.1046 90.0202V85.2482Z"/>
</mask>
<path d="M94.1046 85.2482C94.1046 83.7313 95.3343 82.5016 96.8512 82.5016H395.811C397.328 82.5016 398.558 83.7313 398.558 85.2482V90.0202C398.558 91.5371 397.328 92.7668 395.811 92.7668H96.8513C95.3343 92.7668 94.1046 91.5371 94.1046 90.0202V85.2482Z" fill="var(--fill-0, #D9D9D9)" fill-opacity="0.5"/>
<path d="M94.1046 82.5016H398.558H94.1046ZM399.931 90.0202C399.931 92.2956 398.087 94.1402 395.811 94.1402H98.2246C95.9492 94.1402 94.1046 92.2956 94.1046 90.0202V90.0202C94.1046 90.7787 95.3343 91.3935 96.8512 91.3935H395.811C396.57 91.3935 397.184 90.7787 397.184 90.0202L399.931 90.0202ZM94.1046 92.7668V82.5016V92.7668ZM395.811 82.5016C398.087 82.5016 399.931 84.3462 399.931 86.6215V90.0202C399.931 92.2956 398.087 94.1402 395.811 94.1402V91.3935C396.57 91.3935 397.184 90.7787 397.184 90.0202V85.2482C397.184 83.7313 396.57 82.5016 395.811 82.5016V82.5016Z" fill="var(--stroke-0, black)" fill-opacity="0.5" mask="url(#path-10-inside-4_0_71)"/>
</g>
<g id="Rectangle 332" filter="url(#filter5_f_0_71)">
<mask id="path-12-inside-5_0_71" fill="white">
<path d="M93.848 410.239C93.848 408.722 95.0778 407.493 96.5947 407.493L395.555 407.493C397.071 407.493 398.301 408.722 398.301 410.239V411.108C398.301 412.625 397.071 413.855 395.555 413.855L96.5947 413.855C95.0778 413.855 93.848 412.625 93.848 411.108V410.239Z"/>
</mask>
<path d="M93.848 410.239C93.848 408.722 95.0778 407.493 96.5947 407.493L395.555 407.493C397.071 407.493 398.301 408.722 398.301 410.239V411.108C398.301 412.625 397.071 413.855 395.555 413.855L96.5947 413.855C95.0778 413.855 93.848 412.625 93.848 411.108V410.239Z" fill="var(--fill-0, #D9D9D9)" fill-opacity="0.5"/>
<path d="M93.848 410.239C93.848 408.571 95.2007 407.218 96.8693 407.218L395.967 407.218C397.635 407.218 398.988 408.571 398.988 410.239H397.615C397.615 408.874 396.692 407.767 395.555 407.767L96.5947 407.767C95.0778 407.767 93.848 408.874 93.848 410.239V410.239ZM398.988 411.795C398.988 413.691 397.451 415.228 395.555 415.228L97.968 415.228C95.6926 415.228 93.848 413.383 93.848 411.108V411.108C93.848 411.867 95.0778 412.481 96.5947 412.481L395.555 412.481C396.692 412.481 397.615 411.867 397.615 411.108L398.988 411.795ZM93.848 413.855V407.493V413.855ZM395.967 407.218C397.635 407.218 398.988 408.571 398.988 410.239V411.795C398.988 413.691 397.451 415.228 395.555 415.228V412.481C396.692 412.481 397.615 411.867 397.615 411.108V410.239C397.615 408.874 396.692 407.767 395.555 407.767L395.967 407.218Z" fill="var(--stroke-0, black)" fill-opacity="0.5" mask="url(#path-12-inside-5_0_71)"/>
</g>
<g id="Rectangle 318" filter="url(#filter6_f_0_71)">
<mask id="path-14-inside-6_0_71" fill="white">
<path d="M94.1046 101.434C94.1046 99.9169 95.3343 98.6872 96.8512 98.6872H395.811C397.328 98.6872 398.558 99.9169 398.558 101.434V109.391C398.558 110.908 397.328 112.138 395.811 112.138H96.8513C95.3343 112.138 94.1046 110.908 94.1046 109.391V101.434Z"/>
</mask>
<path d="M94.1046 101.434C94.1046 99.9169 95.3343 98.6872 96.8512 98.6872H395.811C397.328 98.6872 398.558 99.9169 398.558 101.434V109.391C398.558 110.908 397.328 112.138 395.811 112.138H96.8513C95.3343 112.138 94.1046 110.908 94.1046 109.391V101.434Z" fill="var(--fill-0, #D9D9D9)" fill-opacity="0.5"/>
<path d="M94.1046 98.6872H398.558H94.1046ZM399.931 109.391C399.931 111.667 398.087 113.511 395.811 113.511H98.2246C95.9492 113.511 94.1046 111.667 94.1046 109.391V109.391C94.1046 110.15 95.3343 110.765 96.8512 110.765H395.811C396.57 110.765 397.184 110.15 397.184 109.391H399.931ZM94.1046 112.138V98.6872V112.138ZM395.811 98.6872C398.087 98.6872 399.931 100.532 399.931 102.807V109.391C399.931 111.667 398.087 113.511 395.811 113.511V110.765C396.57 110.765 397.184 110.15 397.184 109.391V101.434C397.184 99.9169 396.57 98.6872 395.811 98.6872V98.6872Z" fill="var(--stroke-0, black)" fill-opacity="0.5" mask="url(#path-14-inside-6_0_71)"/>
</g>
<g id="Rectangle 319" filter="url(#filter7_f_0_71)">
<mask id="path-16-inside-7_0_71" fill="white">
<path d="M94.1046 120.805C94.1046 119.288 95.3343 118.058 96.8512 118.058H395.811C397.328 118.058 398.558 119.288 398.558 120.805V128.763C398.558 130.28 397.328 131.509 395.811 131.509H96.8513C95.3343 131.509 94.1046 130.28 94.1046 128.763V120.805Z"/>
</mask>
<path d="M94.1046 120.805C94.1046 119.288 95.3343 118.058 96.8512 118.058H395.811C397.328 118.058 398.558 119.288 398.558 120.805V128.763C398.558 130.28 397.328 131.509 395.811 131.509H96.8513C95.3343 131.509 94.1046 130.28 94.1046 128.763V120.805Z" fill="var(--fill-0, #D9D9D9)" fill-opacity="0.5"/>
<path d="M94.1046 118.058H398.558H94.1046ZM399.931 128.763C399.931 131.038 398.087 132.883 395.811 132.883H98.2246C95.9492 132.883 94.1046 131.038 94.1046 128.763V128.763C94.1046 129.521 95.3343 130.136 96.8512 130.136H395.811C396.57 130.136 397.184 129.521 397.184 128.763H399.931ZM94.1046 131.509V118.058V131.509ZM395.811 118.058C398.087 118.058 399.931 119.903 399.931 122.178V128.763C399.931 131.038 398.087 132.883 395.811 132.883V130.136C396.57 130.136 397.184 129.521 397.184 128.763V120.805C397.184 119.288 396.57 118.058 395.811 118.058V118.058Z" fill="var(--stroke-0, black)" fill-opacity="0.5" mask="url(#path-16-inside-7_0_71)"/>
</g>
<g id="Rectangle 323" filter="url(#filter8_f_0_71)">
<mask id="path-18-inside-8_0_71" fill="white">
<path d="M94.1046 198.29C94.1046 196.773 95.3343 195.543 96.8512 195.543H395.811C397.328 195.543 398.558 196.773 398.558 198.29V206.248C398.558 207.765 397.328 208.994 395.811 208.994H96.8513C95.3343 208.994 94.1046 207.765 94.1046 206.248V198.29Z"/>
</mask>
<path d="M94.1046 198.29C94.1046 196.773 95.3343 195.543 96.8512 195.543H395.811C397.328 195.543 398.558 196.773 398.558 198.29V206.248C398.558 207.765 397.328 208.994 395.811 208.994H96.8513C95.3343 208.994 94.1046 207.765 94.1046 206.248V198.29Z" fill="var(--fill-0, #D9D9D9)" fill-opacity="0.5"/>
<path d="M94.1046 195.543H398.558H94.1046ZM399.931 206.248C399.931 208.523 398.087 210.368 395.811 210.368H98.2246C95.9492 210.368 94.1046 208.523 94.1046 206.248V206.248C94.1046 207.006 95.3343 207.621 96.8512 207.621H395.811C396.57 207.621 397.184 207.006 397.184 206.248H399.931ZM94.1046 208.994V195.543V208.994ZM395.811 195.543C398.087 195.543 399.931 197.388 399.931 199.663V206.248C399.931 208.523 398.087 210.368 395.811 210.368V207.621C396.57 207.621 397.184 207.006 397.184 206.248V198.29C397.184 196.773 396.57 195.543 395.811 195.543V195.543Z" fill="var(--stroke-0, black)" fill-opacity="0.5" mask="url(#path-18-inside-8_0_71)"/>
</g>
<g id="Rectangle 327" filter="url(#filter9_f_0_71)">
<mask id="path-20-inside-9_0_71" fill="white">
<path d="M94.1046 275.775C94.1046 274.258 95.3343 273.029 96.8512 273.029H395.811C397.328 273.029 398.558 274.258 398.558 275.775V283.733C398.558 285.25 397.328 286.479 395.811 286.479H96.8513C95.3343 286.479 94.1046 285.25 94.1046 283.733V275.775Z"/>
</mask>
<path d="M94.1046 275.775C94.1046 274.258 95.3343 273.029 96.8512 273.029H395.811C397.328 273.029 398.558 274.258 398.558 275.775V283.733C398.558 285.25 397.328 286.479 395.811 286.479H96.8513C95.3343 286.479 94.1046 285.25 94.1046 283.733V275.775Z" fill="var(--fill-0, #D9D9D9)" fill-opacity="0.5"/>
<path d="M94.1046 273.029H398.558H94.1046ZM399.931 283.733C399.931 286.008 398.087 287.853 395.811 287.853H98.2246C95.9492 287.853 94.1046 286.008 94.1046 283.733V283.733C94.1046 284.491 95.3343 285.106 96.8512 285.106H395.811C396.57 285.106 397.184 284.491 397.184 283.733H399.931ZM94.1046 286.479V273.029V286.479ZM395.811 273.029C398.087 273.029 399.931 274.873 399.931 277.149V283.733C399.931 286.008 398.087 287.853 395.811 287.853V285.106C396.57 285.106 397.184 284.491 397.184 283.733V275.775C397.184 274.258 396.57 273.029 395.811 273.029V273.029Z" fill="var(--stroke-0, black)" fill-opacity="0.5" mask="url(#path-20-inside-9_0_71)"/>
</g>
<g id="Rectangle 320" filter="url(#filter10_f_0_71)">
<mask id="path-22-inside-10_0_71" fill="white">
<path d="M94.1046 140.176C94.1046 138.659 95.3343 137.43 96.8512 137.43H395.811C397.328 137.43 398.558 138.659 398.558 140.176V148.134C398.558 149.651 397.328 150.881 395.811 150.881H96.8513C95.3343 150.881 94.1046 149.651 94.1046 148.134V140.176Z"/>
</mask>
<path d="M94.1046 140.176C94.1046 138.659 95.3343 137.43 96.8512 137.43H395.811C397.328 137.43 398.558 138.659 398.558 140.176V148.134C398.558 149.651 397.328 150.881 395.811 150.881H96.8513C95.3343 150.881 94.1046 149.651 94.1046 148.134V140.176Z" fill="var(--fill-0, #D9D9D9)" fill-opacity="0.5"/>
<path d="M94.1046 137.43H398.558H94.1046ZM399.931 148.134C399.931 150.409 398.087 152.254 395.811 152.254H98.2246C95.9492 152.254 94.1046 150.409 94.1046 148.134V148.134C94.1046 148.892 95.3343 149.507 96.8512 149.507H395.811C396.57 149.507 397.184 148.892 397.184 148.134H399.931ZM94.1046 150.881V137.43V150.881ZM395.811 137.43C398.087 137.43 399.931 139.274 399.931 141.55V148.134C399.931 150.409 398.087 152.254 395.811 152.254V149.507C396.57 149.507 397.184 148.892 397.184 148.134V140.176C397.184 138.659 396.57 137.43 395.811 137.43V137.43Z" fill="var(--stroke-0, black)" fill-opacity="0.5" mask="url(#path-22-inside-10_0_71)"/>
</g>
<g id="Rectangle 324" filter="url(#filter11_f_0_71)">
<mask id="path-24-inside-11_0_71" fill="white">
<path d="M94.1046 217.661C94.1046 216.144 95.3343 214.915 96.8512 214.915H395.811C397.328 214.915 398.558 216.144 398.558 217.661V225.619C398.558 227.136 397.328 228.366 395.811 228.366H96.8513C95.3343 228.366 94.1046 227.136 94.1046 225.619V217.661Z"/>
</mask>
<path d="M94.1046 217.661C94.1046 216.144 95.3343 214.915 96.8512 214.915H395.811C397.328 214.915 398.558 216.144 398.558 217.661V225.619C398.558 227.136 397.328 228.366 395.811 228.366H96.8513C95.3343 228.366 94.1046 227.136 94.1046 225.619V217.661Z" fill="var(--fill-0, #D9D9D9)" fill-opacity="0.5"/>
<path d="M94.1046 214.915H398.558H94.1046ZM399.931 225.619C399.931 227.894 398.087 229.739 395.811 229.739H98.2246C95.9492 229.739 94.1046 227.894 94.1046 225.619V225.619C94.1046 226.378 95.3343 226.992 96.8512 226.992H395.811C396.57 226.992 397.184 226.378 397.184 225.619H399.931ZM94.1046 228.366V214.915V228.366ZM395.811 214.915C398.087 214.915 399.931 216.759 399.931 219.035V225.619C399.931 227.894 398.087 229.739 395.811 229.739V226.992C396.57 226.992 397.184 226.378 397.184 225.619V217.661C397.184 216.144 396.57 214.915 395.811 214.915V214.915Z" fill="var(--stroke-0, black)" fill-opacity="0.5" mask="url(#path-24-inside-11_0_71)"/>
</g>
<g id="Rectangle 328" filter="url(#filter12_f_0_71)">
<mask id="path-26-inside-12_0_71" fill="white">
<path d="M94.1046 295.146C94.1046 293.63 95.3343 292.4 96.8512 292.4H395.811C397.328 292.4 398.558 293.63 398.558 295.146V303.104C398.558 304.621 397.328 305.851 395.811 305.851H96.8513C95.3343 305.851 94.1046 304.621 94.1046 303.104V295.146Z"/>
</mask>
<path d="M94.1046 295.146C94.1046 293.63 95.3343 292.4 96.8512 292.4H395.811C397.328 292.4 398.558 293.63 398.558 295.146V303.104C398.558 304.621 397.328 305.851 395.811 305.851H96.8513C95.3343 305.851 94.1046 304.621 94.1046 303.104V295.146Z" fill="var(--fill-0, #D9D9D9)" fill-opacity="0.5"/>
<path d="M94.1046 292.4H398.558H94.1046ZM399.931 303.104C399.931 305.38 398.087 307.224 395.811 307.224H98.2246C95.9492 307.224 94.1046 305.38 94.1046 303.104V303.104C94.1046 303.863 95.3343 304.477 96.8512 304.477H395.811C396.57 304.477 397.184 303.863 397.184 303.104H399.931ZM94.1046 305.851V292.4V305.851ZM395.811 292.4C398.087 292.4 399.931 294.244 399.931 296.52V303.104C399.931 305.38 398.087 307.224 395.811 307.224V304.477C396.57 304.477 397.184 303.863 397.184 303.104V295.146C397.184 293.63 396.57 292.4 395.811 292.4V292.4Z" fill="var(--stroke-0, black)" fill-opacity="0.5" mask="url(#path-26-inside-12_0_71)"/>
</g>
<g id="Rectangle 334" filter="url(#filter13_f_0_71)">
<mask id="path-28-inside-13_0_71" fill="white">
<path d="M94.1046 353.26C94.1046 351.743 95.3343 350.514 96.8512 350.514H395.811C397.328 350.514 398.558 351.743 398.558 353.26V361.218C398.558 362.735 397.328 363.965 395.811 363.965H96.8513C95.3343 363.965 94.1046 362.735 94.1046 361.218V353.26Z"/>
</mask>
<path d="M94.1046 353.26C94.1046 351.743 95.3343 350.514 96.8512 350.514H395.811C397.328 350.514 398.558 351.743 398.558 353.26V361.218C398.558 362.735 397.328 363.965 395.811 363.965H96.8513C95.3343 363.965 94.1046 362.735 94.1046 361.218V353.26Z" fill="var(--fill-0, #D9D9D9)" fill-opacity="0.5"/>
<path d="M94.1046 353.26C94.1046 351.592 95.4573 350.239 97.1259 350.239H396.223C397.892 350.239 399.244 351.592 399.244 353.26H397.871C397.871 351.895 396.949 350.788 395.811 350.788H96.8512C95.3343 350.788 94.1046 351.895 94.1046 353.26V353.26ZM399.244 361.905C399.244 363.801 397.707 365.338 395.811 365.338H98.2246C95.9492 365.338 94.1046 363.493 94.1046 361.218V361.218C94.1046 361.977 95.3343 362.591 96.8512 362.591H395.811C396.949 362.591 397.871 361.977 397.871 361.218L399.244 361.905ZM94.1046 363.965V350.514V363.965ZM396.223 350.239C397.892 350.239 399.244 351.592 399.244 353.26V361.905C399.244 363.801 397.707 365.338 395.811 365.338V362.591C396.949 362.591 397.871 361.977 397.871 361.218V353.26C397.871 351.895 396.949 350.788 395.811 350.788L396.223 350.239Z" fill="var(--stroke-0, black)" fill-opacity="0.5" mask="url(#path-28-inside-13_0_71)"/>
</g>
<g id="Rectangle 321" filter="url(#filter14_f_0_71)">
<mask id="path-30-inside-14_0_71" fill="white">
<path d="M94.1046 159.548C94.1046 158.031 95.3343 156.801 96.8512 156.801H395.811C397.328 156.801 398.558 158.031 398.558 159.548V167.505C398.558 169.022 397.328 170.252 395.811 170.252H96.8513C95.3343 170.252 94.1046 169.022 94.1046 167.505V159.548Z"/>
</mask>
<path d="M94.1046 159.548C94.1046 158.031 95.3343 156.801 96.8512 156.801H395.811C397.328 156.801 398.558 158.031 398.558 159.548V167.505C398.558 169.022 397.328 170.252 395.811 170.252H96.8513C95.3343 170.252 94.1046 169.022 94.1046 167.505V159.548Z" fill="var(--fill-0, #D9D9D9)" fill-opacity="0.5"/>
<path d="M94.1046 156.801H398.558H94.1046ZM399.931 167.505C399.931 169.781 398.087 171.625 395.811 171.625H98.2246C95.9492 171.625 94.1046 169.781 94.1046 167.505V167.505C94.1046 168.264 95.3343 168.879 96.8512 168.879H395.811C396.57 168.879 397.184 168.264 397.184 167.505H399.931ZM94.1046 170.252V156.801V170.252ZM395.811 156.801C398.087 156.801 399.931 158.646 399.931 160.921V167.505C399.931 169.781 398.087 171.625 395.811 171.625V168.879C396.57 168.879 397.184 168.264 397.184 167.505V159.548C397.184 158.031 396.57 156.801 395.811 156.801V156.801Z" fill="var(--stroke-0, black)" fill-opacity="0.5" mask="url(#path-30-inside-14_0_71)"/>
</g>
<g id="Rectangle 325" filter="url(#filter15_f_0_71)">
<mask id="path-32-inside-15_0_71" fill="white">
<path d="M94.1046 237.033C94.1046 235.516 95.3343 234.286 96.8512 234.286H395.811C397.328 234.286 398.558 235.516 398.558 237.033V244.99C398.558 246.507 397.328 247.737 395.811 247.737H96.8513C95.3343 247.737 94.1046 246.507 94.1046 244.99V237.033Z"/>
</mask>
<path d="M94.1046 237.033C94.1046 235.516 95.3343 234.286 96.8512 234.286H395.811C397.328 234.286 398.558 235.516 398.558 237.033V244.99C398.558 246.507 397.328 247.737 395.811 247.737H96.8513C95.3343 247.737 94.1046 246.507 94.1046 244.99V237.033Z" fill="var(--fill-0, #D9D9D9)" fill-opacity="0.5"/>
<path d="M94.1046 234.286H398.558H94.1046ZM399.931 244.99C399.931 247.266 398.087 249.11 395.811 249.11H98.2246C95.9492 249.11 94.1046 247.266 94.1046 244.99V244.99C94.1046 245.749 95.3343 246.364 96.8512 246.364H395.811C396.57 246.364 397.184 245.749 397.184 244.99H399.931ZM94.1046 247.737V234.286V247.737ZM395.811 234.286C398.087 234.286 399.931 236.131 399.931 238.406V244.99C399.931 247.266 398.087 249.11 395.811 249.11V246.364C396.57 246.364 397.184 245.749 397.184 244.99V237.033C397.184 235.516 396.57 234.286 395.811 234.286V234.286Z" fill="var(--stroke-0, black)" fill-opacity="0.5" mask="url(#path-32-inside-15_0_71)"/>
</g>
<g id="Rectangle 329" filter="url(#filter16_f_0_71)">
<mask id="path-34-inside-16_0_71" fill="white">
<path d="M94.1046 314.518C94.1046 313.001 95.3343 311.771 96.8512 311.771H395.811C397.328 311.771 398.558 313.001 398.558 314.518V322.475C398.558 323.992 397.328 325.222 395.811 325.222H96.8513C95.3343 325.222 94.1046 323.992 94.1046 322.475V314.518Z"/>
</mask>
<path d="M94.1046 314.518C94.1046 313.001 95.3343 311.771 96.8512 311.771H395.811C397.328 311.771 398.558 313.001 398.558 314.518V322.475C398.558 323.992 397.328 325.222 395.811 325.222H96.8513C95.3343 325.222 94.1046 323.992 94.1046 322.475V314.518Z" fill="var(--fill-0, #D9D9D9)" fill-opacity="0.5"/>
<path d="M94.1046 314.518C94.1046 312.849 95.4573 311.496 97.1259 311.496H396.223C397.892 311.496 399.244 312.849 399.244 314.518H397.871C397.871 313.153 396.949 312.046 395.811 312.046H96.8512C95.3343 312.046 94.1046 313.153 94.1046 314.518V314.518ZM399.244 323.162C399.244 325.058 397.707 326.595 395.811 326.595H98.2246C95.9492 326.595 94.1046 324.751 94.1046 322.475V322.475C94.1046 323.234 95.3343 323.849 96.8512 323.849H395.811C396.949 323.849 397.871 323.234 397.871 322.475L399.244 323.162ZM94.1046 325.222V311.771V325.222ZM396.223 311.496C397.892 311.496 399.244 312.849 399.244 314.518V323.162C399.244 325.058 397.707 326.595 395.811 326.595V323.849C396.949 323.849 397.871 323.234 397.871 322.475V314.518C397.871 313.153 396.949 312.046 395.811 312.046L396.223 311.496Z" fill="var(--stroke-0, black)" fill-opacity="0.5" mask="url(#path-34-inside-16_0_71)"/>
</g>
<g id="Rectangle 335" filter="url(#filter17_f_0_71)">
<mask id="path-36-inside-17_0_71" fill="white">
<path d="M94.1046 372.632C94.1046 371.115 95.3343 369.885 96.8512 369.885H395.811C397.328 369.885 398.558 371.115 398.558 372.632V380.589C398.558 382.106 397.328 383.336 395.811 383.336H96.8513C95.3343 383.336 94.1046 382.106 94.1046 380.589V372.632Z"/>
</mask>
<path d="M94.1046 372.632C94.1046 371.115 95.3343 369.885 96.8512 369.885H395.811C397.328 369.885 398.558 371.115 398.558 372.632V380.589C398.558 382.106 397.328 383.336 395.811 383.336H96.8513C95.3343 383.336 94.1046 382.106 94.1046 380.589V372.632Z" fill="var(--fill-0, #D9D9D9)" fill-opacity="0.5"/>
<path d="M94.1046 372.632C94.1046 370.963 95.4573 369.61 97.1259 369.61H396.223C397.892 369.61 399.244 370.963 399.244 372.632H397.871C397.871 371.267 396.949 370.16 395.811 370.16H96.8512C95.3343 370.16 94.1046 371.267 94.1046 372.632V372.632ZM399.244 381.276C399.244 383.172 397.707 384.709 395.811 384.709H98.2246C95.9492 384.709 94.1046 382.865 94.1046 380.589V380.589C94.1046 381.348 95.3343 381.963 96.8512 381.963H395.811C396.949 381.963 397.871 381.348 397.871 380.589L399.244 381.276ZM94.1046 383.336V369.885V383.336ZM396.223 369.61C397.892 369.61 399.244 370.963 399.244 372.632V381.276C399.244 383.172 397.707 384.709 395.811 384.709V381.963C396.949 381.963 397.871 381.348 397.871 380.589V372.632C397.871 371.267 396.949 370.16 395.811 370.16L396.223 369.61Z" fill="var(--stroke-0, black)" fill-opacity="0.5" mask="url(#path-36-inside-17_0_71)"/>
</g>
<g id="Rectangle 322" filter="url(#filter18_f_0_71)">
<mask id="path-38-inside-18_0_71" fill="white">
<path d="M94.1046 178.919C94.1046 177.402 95.3343 176.172 96.8512 176.172H395.811C397.328 176.172 398.558 177.402 398.558 178.919V186.876C398.558 188.393 397.328 189.623 395.811 189.623H96.8513C95.3343 189.623 94.1046 188.393 94.1046 186.876V178.919Z"/>
</mask>
<path d="M94.1046 178.919C94.1046 177.402 95.3343 176.172 96.8512 176.172H395.811C397.328 176.172 398.558 177.402 398.558 178.919V186.876C398.558 188.393 397.328 189.623 395.811 189.623H96.8513C95.3343 189.623 94.1046 188.393 94.1046 186.876V178.919Z" fill="var(--fill-0, #D9D9D9)" fill-opacity="0.5"/>
<path d="M94.1046 176.172H398.558H94.1046ZM399.931 186.876C399.931 189.152 398.087 190.996 395.811 190.996H98.2246C95.9492 190.996 94.1046 189.152 94.1046 186.876V186.876C94.1046 187.635 95.3343 188.25 96.8512 188.25H395.811C396.57 188.25 397.184 187.635 397.184 186.876H399.931ZM94.1046 189.623V176.172V189.623ZM395.811 176.172C398.087 176.172 399.931 178.017 399.931 180.292V186.876C399.931 189.152 398.087 190.996 395.811 190.996V188.25C396.57 188.25 397.184 187.635 397.184 186.876V178.919C397.184 177.402 396.57 176.172 395.811 176.172V176.172Z" fill="var(--stroke-0, black)" fill-opacity="0.5" mask="url(#path-38-inside-18_0_71)"/>
</g>
<g id="Rectangle 326" filter="url(#filter19_f_0_71)">
<mask id="path-40-inside-19_0_71" fill="white">
<path d="M94.1046 256.404C94.1046 254.887 95.3343 253.657 96.8512 253.657H395.811C397.328 253.657 398.558 254.887 398.558 256.404V264.362C398.558 265.879 397.328 267.108 395.811 267.108H96.8513C95.3343 267.108 94.1046 265.879 94.1046 264.362V256.404Z"/>
</mask>
<path d="M94.1046 256.404C94.1046 254.887 95.3343 253.657 96.8512 253.657H395.811C397.328 253.657 398.558 254.887 398.558 256.404V264.362C398.558 265.879 397.328 267.108 395.811 267.108H96.8513C95.3343 267.108 94.1046 265.879 94.1046 264.362V256.404Z" fill="var(--fill-0, #D9D9D9)" fill-opacity="0.5"/>
<path d="M94.1046 253.657H398.558H94.1046ZM399.931 264.362C399.931 266.637 398.087 268.482 395.811 268.482H98.2246C95.9492 268.482 94.1046 266.637 94.1046 264.362V264.362C94.1046 265.12 95.3343 265.735 96.8512 265.735H395.811C396.57 265.735 397.184 265.12 397.184 264.362H399.931ZM94.1046 267.108V253.657V267.108ZM395.811 253.657C398.087 253.657 399.931 255.502 399.931 257.777V264.362C399.931 266.637 398.087 268.482 395.811 268.482V265.735C396.57 265.735 397.184 265.12 397.184 264.362V256.404C397.184 254.887 396.57 253.657 395.811 253.657V253.657Z" fill="var(--stroke-0, black)" fill-opacity="0.5" mask="url(#path-40-inside-19_0_71)"/>
</g>
<g id="Rectangle 330" filter="url(#filter20_f_0_71)">
<mask id="path-42-inside-20_0_71" fill="white">
<path d="M94.1046 333.889C94.1046 332.372 95.3343 331.142 96.8512 331.142H395.811C397.328 331.142 398.558 332.372 398.558 333.889V341.847C398.558 343.364 397.328 344.593 395.811 344.593H96.8513C95.3343 344.593 94.1046 343.364 94.1046 341.847V333.889Z"/>
</mask>
<path d="M94.1046 333.889C94.1046 332.372 95.3343 331.142 96.8512 331.142H395.811C397.328 331.142 398.558 332.372 398.558 333.889V341.847C398.558 343.364 397.328 344.593 395.811 344.593H96.8513C95.3343 344.593 94.1046 343.364 94.1046 341.847V333.889Z" fill="var(--fill-0, #D9D9D9)" fill-opacity="0.5"/>
<path d="M94.1046 333.889C94.1046 332.22 95.4573 330.868 97.1259 330.868H396.223C397.892 330.868 399.244 332.22 399.244 333.889H397.871C397.871 332.524 396.949 331.417 395.811 331.417H96.8512C95.3343 331.417 94.1046 332.524 94.1046 333.889V333.889ZM399.244 342.533C399.244 344.429 397.707 345.967 395.811 345.967H98.2246C95.9492 345.967 94.1046 344.122 94.1046 341.847V341.847C94.1046 342.605 95.3343 343.22 96.8512 343.22H395.811C396.949 343.22 397.871 342.605 397.871 341.847L399.244 342.533ZM94.1046 344.593V331.142V344.593ZM396.223 330.868C397.892 330.868 399.244 332.22 399.244 333.889V342.533C399.244 344.429 397.707 345.967 395.811 345.967V343.22C396.949 343.22 397.871 342.605 397.871 341.847V333.889C397.871 332.524 396.949 331.417 395.811 331.417L396.223 330.868Z" fill="var(--stroke-0, black)" fill-opacity="0.5" mask="url(#path-42-inside-20_0_71)"/>
</g>
<g id="Rectangle 336" filter="url(#filter21_f_0_71)">
<mask id="path-44-inside-21_0_71" fill="white">
<path d="M94.1046 392.003C94.1046 390.486 95.3343 389.256 96.8512 389.256H395.811C397.328 389.256 398.558 390.486 398.558 392.003V399.961C398.558 401.478 397.328 402.707 395.811 402.707H96.8513C95.3343 402.707 94.1046 401.478 94.1046 399.961V392.003Z"/>
</mask>
<path d="M94.1046 392.003C94.1046 390.486 95.3343 389.256 96.8512 389.256H395.811C397.328 389.256 398.558 390.486 398.558 392.003V399.961C398.558 401.478 397.328 402.707 395.811 402.707H96.8513C95.3343 402.707 94.1046 401.478 94.1046 399.961V392.003Z" fill="var(--fill-0, #D9D9D9)" fill-opacity="0.5"/>
<path d="M94.1046 392.003C94.1046 390.334 95.4573 388.982 97.1259 388.982H396.223C397.892 388.982 399.244 390.334 399.244 392.003H397.871C397.871 390.638 396.949 389.531 395.811 389.531H96.8512C95.3343 389.531 94.1046 390.638 94.1046 392.003V392.003ZM399.244 400.647C399.244 402.544 397.707 404.081 395.811 404.081H98.2246C95.9492 404.081 94.1046 402.236 94.1046 399.961V399.961C94.1046 400.719 95.3343 401.334 96.8512 401.334H395.811C396.949 401.334 397.871 400.719 397.871 399.961L399.244 400.647ZM94.1046 402.707V389.256V402.707ZM396.223 388.982C397.892 388.982 399.244 390.334 399.244 392.003V400.647C399.244 402.544 397.707 404.081 395.811 404.081V401.334C396.949 401.334 397.871 400.719 397.871 399.961V392.003C397.871 390.638 396.949 389.531 395.811 389.531L396.223 388.982Z" fill="var(--stroke-0, black)" fill-opacity="0.5" mask="url(#path-44-inside-21_0_71)"/>
</g>
</g>
<defs>
<filter id="filter0_d_0_71" x="-7.48842e-08" y="-6.90943e-09" width="492.661" height="464.971" filterUnits="userSpaceOnUse" color-interpolation-filters="sRGB">
<feFlood flood-opacity="0" result="BackgroundImageFix"/>
<feColorMatrix in="SourceAlpha" type="matrix" values="0 0 0 0 0 0 0 0 0 0 0 0 0 0 0 0 0 0 127 0" result="hardAlpha"/>
<feOffset dy="4.11995"/>
<feGaussianBlur stdDeviation="2.12864"/>
<feComposite in2="hardAlpha" operator="out"/>
<feColorMatrix type="matrix" values="0 0 0 0 0 0 0 0 0 0 0 0 0 0 0 0 0 0 0.64 0"/>
<feBlend mode="normal" in2="BackgroundImageFix" result="effect1_dropShadow_0_71"/>
<feBlend mode="normal" in="SourceGraphic" in2="effect1_dropShadow_0_71" result="shape"/>
</filter>
<filter id="filter1_f_0_71" x="92.7313" y="70.048" width="307.2" height="7.90709" filterUnits="userSpaceOnUse" color-interpolation-filters="sRGB">
<feFlood flood-opacity="0" result="BackgroundImageFix"/>
<feBlend mode="normal" in="SourceGraphic" in2="BackgroundImageFix" result="shape"/>
<feGaussianBlur stdDeviation="0.686658" result="effect1_foregroundBlur_0_71"/>
</filter>
<filter id="filter2_f_0_71" x="92.7313" y="417.267" width="307.2" height="8.53518" filterUnits="userSpaceOnUse" color-interpolation-filters="sRGB">
<feFlood flood-opacity="0" result="BackgroundImageFix"/>
<feBlend mode="normal" in="SourceGraphic" in2="BackgroundImageFix" result="shape"/>
<feGaussianBlur stdDeviation="0.686658" result="effect1_foregroundBlur_0_71"/>
</filter>
<filter id="filter3_f_0_71" x="92.7313" y="426.099" width="307.2" height="5.53966" filterUnits="userSpaceOnUse" color-interpolation-filters="sRGB">
<feFlood flood-opacity="0" result="BackgroundImageFix"/>
<feBlend mode="normal" in="SourceGraphic" in2="BackgroundImageFix" result="shape"/>
<feGaussianBlur stdDeviation="0.686658" result="effect1_foregroundBlur_0_71"/>
</filter>
<filter id="filter4_f_0_71" x="92.7313" y="81.1283" width="307.2" height="13.0119" filterUnits="userSpaceOnUse" color-interpolation-filters="sRGB">
<feFlood flood-opacity="0" result="BackgroundImageFix"/>
<feBlend mode="normal" in="SourceGraphic" in2="BackgroundImageFix" result="shape"/>
<feGaussianBlur stdDeviation="0.686658" result="effect1_foregroundBlur_0_71"/>
</filter>
<filter id="filter5_f_0_71" x="92.4747" y="406.119" width="307.2" height="9.10863" filterUnits="userSpaceOnUse" color-interpolation-filters="sRGB">
<feFlood flood-opacity="0" result="BackgroundImageFix"/>
<feBlend mode="normal" in="SourceGraphic" in2="BackgroundImageFix" result="shape"/>
<feGaussianBlur stdDeviation="0.686658" result="effect1_foregroundBlur_0_71"/>
</filter>
<filter id="filter6_f_0_71" x="92.7313" y="97.3139" width="307.2" height="16.1975" filterUnits="userSpaceOnUse" color-interpolation-filters="sRGB">
<feFlood flood-opacity="0" result="BackgroundImageFix"/>
<feBlend mode="normal" in="SourceGraphic" in2="BackgroundImageFix" result="shape"/>
<feGaussianBlur stdDeviation="0.686658" result="effect1_foregroundBlur_0_71"/>
</filter>
<filter id="filter7_f_0_71" x="92.7313" y="116.685" width="307.2" height="16.1975" filterUnits="userSpaceOnUse" color-interpolation-filters="sRGB">
<feFlood flood-opacity="0" result="BackgroundImageFix"/>
<feBlend mode="normal" in="SourceGraphic" in2="BackgroundImageFix" result="shape"/>
<feGaussianBlur stdDeviation="0.686658" result="effect1_foregroundBlur_0_71"/>
</filter>
<filter id="filter8_f_0_71" x="92.7313" y="194.17" width="307.2" height="16.1975" filterUnits="userSpaceOnUse" color-interpolation-filters="sRGB">
<feFlood flood-opacity="0" result="BackgroundImageFix"/>
<feBlend mode="normal" in="SourceGraphic" in2="BackgroundImageFix" result="shape"/>
<feGaussianBlur stdDeviation="0.686658" result="effect1_foregroundBlur_0_71"/>
</filter>
<filter id="filter9_f_0_71" x="92.7313" y="271.655" width="307.2" height="16.1975" filterUnits="userSpaceOnUse" color-interpolation-filters="sRGB">
<feFlood flood-opacity="0" result="BackgroundImageFix"/>
<feBlend mode="normal" in="SourceGraphic" in2="BackgroundImageFix" result="shape"/>
<feGaussianBlur stdDeviation="0.686658" result="effect1_foregroundBlur_0_71"/>
</filter>
<filter id="filter10_f_0_71" x="92.7313" y="136.056" width="307.2" height="16.1975" filterUnits="userSpaceOnUse" color-interpolation-filters="sRGB">
<feFlood flood-opacity="0" result="BackgroundImageFix"/>
<feBlend mode="normal" in="SourceGraphic" in2="BackgroundImageFix" result="shape"/>
<feGaussianBlur stdDeviation="0.686658" result="effect1_foregroundBlur_0_71"/>
</filter>
<filter id="filter11_f_0_71" x="92.7313" y="213.541" width="307.2" height="16.1975" filterUnits="userSpaceOnUse" color-interpolation-filters="sRGB">
<feFlood flood-opacity="0" result="BackgroundImageFix"/>
<feBlend mode="normal" in="SourceGraphic" in2="BackgroundImageFix" result="shape"/>
<feGaussianBlur stdDeviation="0.686658" result="effect1_foregroundBlur_0_71"/>
</filter>
<filter id="filter12_f_0_71" x="92.7313" y="291.027" width="307.2" height="16.1975" filterUnits="userSpaceOnUse" color-interpolation-filters="sRGB">
<feFlood flood-opacity="0" result="BackgroundImageFix"/>
<feBlend mode="normal" in="SourceGraphic" in2="BackgroundImageFix" result="shape"/>
<feGaussianBlur stdDeviation="0.686658" result="effect1_foregroundBlur_0_71"/>
</filter>
<filter id="filter13_f_0_71" x="92.7313" y="349.14" width="307.2" height="16.1975" filterUnits="userSpaceOnUse" color-interpolation-filters="sRGB">
<feFlood flood-opacity="0" result="BackgroundImageFix"/>
<feBlend mode="normal" in="SourceGraphic" in2="BackgroundImageFix" result="shape"/>
<feGaussianBlur stdDeviation="0.686658" result="effect1_foregroundBlur_0_71"/>
</filter>
<filter id="filter14_f_0_71" x="92.7313" y="155.428" width="307.2" height="16.1975" filterUnits="userSpaceOnUse" color-interpolation-filters="sRGB">
<feFlood flood-opacity="0" result="BackgroundImageFix"/>
<feBlend mode="normal" in="SourceGraphic" in2="BackgroundImageFix" result="shape"/>
<feGaussianBlur stdDeviation="0.686658" result="effect1_foregroundBlur_0_71"/>
</filter>
<filter id="filter15_f_0_71" x="92.7313" y="232.913" width="307.2" height="16.1975" filterUnits="userSpaceOnUse" color-interpolation-filters="sRGB">
<feFlood flood-opacity="0" result="BackgroundImageFix"/>
<feBlend mode="normal" in="SourceGraphic" in2="BackgroundImageFix" result="shape"/>
<feGaussianBlur stdDeviation="0.686658" result="effect1_foregroundBlur_0_71"/>
</filter>
<filter id="filter16_f_0_71" x="92.7313" y="310.398" width="307.2" height="16.1975" filterUnits="userSpaceOnUse" color-interpolation-filters="sRGB">
<feFlood flood-opacity="0" result="BackgroundImageFix"/>
<feBlend mode="normal" in="SourceGraphic" in2="BackgroundImageFix" result="shape"/>
<feGaussianBlur stdDeviation="0.686658" result="effect1_foregroundBlur_0_71"/>
</filter>
<filter id="filter17_f_0_71" x="92.7313" y="368.512" width="307.2" height="16.1975" filterUnits="userSpaceOnUse" color-interpolation-filters="sRGB">
<feFlood flood-opacity="0" result="BackgroundImageFix"/>
<feBlend mode="normal" in="SourceGraphic" in2="BackgroundImageFix" result="shape"/>
<feGaussianBlur stdDeviation="0.686658" result="effect1_foregroundBlur_0_71"/>
</filter>
<filter id="filter18_f_0_71" x="92.7313" y="174.799" width="307.2" height="16.1975" filterUnits="userSpaceOnUse" color-interpolation-filters="sRGB">
<feFlood flood-opacity="0" result="BackgroundImageFix"/>
<feBlend mode="normal" in="SourceGraphic" in2="BackgroundImageFix" result="shape"/>
<feGaussianBlur stdDeviation="0.686658" result="effect1_foregroundBlur_0_71"/>
</filter>
<filter id="filter19_f_0_71" x="92.7313" y="252.284" width="307.2" height="16.1975" filterUnits="userSpaceOnUse" color-interpolation-filters="sRGB">
<feFlood flood-opacity="0" result="BackgroundImageFix"/>
<feBlend mode="normal" in="SourceGraphic" in2="BackgroundImageFix" result="shape"/>
<feGaussianBlur stdDeviation="0.686658" result="effect1_foregroundBlur_0_71"/>
</filter>
<filter id="filter20_f_0_71" x="92.7313" y="329.769" width="307.2" height="16.1975" filterUnits="userSpaceOnUse" color-interpolation-filters="sRGB">
<feFlood flood-opacity="0" result="BackgroundImageFix"/>
<feBlend mode="normal" in="SourceGraphic" in2="BackgroundImageFix" result="shape"/>
<feGaussianBlur stdDeviation="0.686658" result="effect1_foregroundBlur_0_71"/>
</filter>
<filter id="filter21_f_0_71" x="92.7313" y="387.883" width="307.2" height="16.1975" filterUnits="userSpaceOnUse" color-interpolation-filters="sRGB">
<feFlood flood-opacity="0" result="BackgroundImageFix"/>
<feBlend mode="normal" in="SourceGraphic" in2="BackgroundImageFix" result="shape"/>
<feGaussianBlur stdDeviation="0.686658" result="effect1_foregroundBlur_0_71"/>
</filter>
<linearGradient id="paint0_linear_0_71" x1="243.21" y1="73.17" x2="243.21" y2="427.472" gradientUnits="userSpaceOnUse">
<stop stop-color="#585858"/>
<stop offset="0.450221" stop-color="#ECECEC"/>
<stop offset="1" stop-color="#1B1B1B"/>
</linearGradient>
<linearGradient id="paint1_linear_0_71" x1="172.638" y1="0.137331" x2="238.308" y2="457.746" gradientUnits="userSpaceOnUse">
<stop stop-color="#A0A0A0"/>
<stop offset="0.0856313" stop-color="white"/>
<stop offset="0.465417" stop-color="#2F2F2F"/>
<stop offset="0.862304" stop-color="white"/>
<stop offset="1" stop-color="#CDCDCD"/>
</linearGradient>
</defs>
</svg>
