<svg preserveAspectRatio="none" width="100%" height="100%" overflow="visible" style="display: block;" viewBox="0 0 287.553 287.553" fill="none" xmlns="http://www.w3.org/2000/svg">
<g id="smiley face">
<circle id="Ellipse 851" cx="143.776" cy="143.776" r="134.113" stroke="var(--stroke-0, #2C2C2C)" stroke-width="19.3263"/>
<circle id="Ellipse 853" cx="11.5454" cy="11.5454" r="11.5454" transform="matrix(1 0 0 -1 93.2689 111.797)" fill="var(--fill-0, #2C2C2C)"/>
<circle id="Ellipse 854" cx="11.5933" cy="11.5933" r="11.5933" transform="matrix(1 0 0 -1 171.1 111.846)" fill="var(--fill-0, #2C2C2C)"/>
<path id="Ellipse 852" d="M227.968 143.777C227.968 154.833 225.79 165.781 221.559 175.995C217.328 186.21 211.127 195.491 203.309 203.309C195.491 211.127 186.21 217.328 175.996 221.559C165.781 225.79 154.833 227.968 143.777 227.968C132.721 227.968 121.773 225.79 111.559 221.559C101.344 217.328 92.0628 211.127 84.245 203.309C76.4271 195.491 70.2256 186.21 65.9946 175.995C61.7636 165.781 59.586 154.833 59.586 143.777" stroke="var(--stroke-0, #2C2C2C)" stroke-width="19.3263"/>
</g>
</svg>
